# xmcd
#
# Track frame offsets:
#	150
#	33300
#	96900
#	115657
#	130725
#	158100
#	198150
#	221700
#	253725
#	276375
#	309375
#
# Disc length: 4248 seconds
#
# Revision: 0
# Processed by: cddbd v1.5.2PL0 Copyright (c) Steve Scherf et al.
# Submitted via: EasyCDDAExtractor 16.0.8.2
#
DISCID=9910960b
DTITLE=Μοναχοί της Σιμωνόπετρας - Αγνή Παρθένε
DYEAR=1990
DGENRE=Βυζ. Εκκλησιαστική
TTITLE0=Αγνή Παρθένε Δέσποινα [ήχος πλ. α', Αγ. Νεκταρίου]
TTITLE1=Εξομολογείσθε τω Κυρίω [ψαλμ. 135, ήχ. α', πλ. δ', πλ. β', βαρ. α']
TTITLE2=Αινείτε τον Κύριον [ψαλμ. 148, ήχοι πλ. δ', α', πλ. β']
TTITLE3=Τεριρέμ [ήχος πλ. β']
TTITLE4=Δόξα: Τον Πατέρα προσκυνήσωμεν-Την μητέρα Σου[πλ.α']
TTITLE5=Δοξολογία [ήχος πλ. β', ρυθμός ΟΙ]
TTITLE6=Ευλογήσω τον Κύριον [ψαλμ. 33, ήχοι α', γ', πλ. α']
TTITLE7=Άσατε τω Κυρίω άσμα καινόν [ψαλμ. 95, ήχος α']
TTITLE8=Εξομολογήσομαί Σοι, Κύριε [ψαλμ. 110, ήχος πλ. β']
TTITLE9=Υψώσω Σε, ο Θεός μου [ψαλμ. 144, οκτώηχος]
TTITLE10=Σίμωνα τον Μέγαν [μεγαλυν. Αγίου Σίμωνος, ήχος πλ. β']
EXTD=
EXTT0=
EXTT1=
EXTT2=
EXTT3=
EXTT4=
EXTT5=
EXTT6=
EXTT7=
EXTT8=
EXTT9=
EXTT10=
PLAYORDER=
